# xmcd CD database file
#
# Track frame offsets:
#	150
#	18774
#	36519
#	63600
#	79463
#	93294
#	118829
#	136067
#	166232
#	196871
#	215566
#	234695
#
# Disc length: 3593 seconds
#
# Revision: 0
# Processed by: cddbd v1.5.2PL0 Copyright (c) Steve Scherf et al.
# Submitted via: CDex 1.51
#
DISCID=a50e070c
DTITLE=AA.VV. - LatinAmerica - Il ritmo e la danza
DYEAR=2003
DGENRE=Salsa
TTITLE0=Grupo Mania/Sube, sube
TTITLE1=Chiki Chaka Girls feat Caribbean Storm/Chiki Chaka (movie version)
TTITLE2=Grupo Niche/Nuestro sueno
TTITLE3=Grupo Mamey/Cuando volveras
TTITLE4=Xavier Cugat and His Orchestra/A bailar merengue
TTITLE5=Grupo Niche/Duele mas
TTITLE6=Louie Ramirez/Tipico
TTITLE7=Juan Formell y Los Van Van/Que cosa tiene la vida
TTITLE8=Los Van Van/Por encima del nivel (Sandunguera)
TTITLE9=Adrian Valdez/Veneno
TTITLE10=Grupo Mania/Ruben
TTITLE11=Juan Formell y Los Van Van/Tim pop con Birdland
EXTD=YEAR: 2003
EXTT0=
EXTT1=
EXTT2=
EXTT3=
EXTT4=
EXTT5=
EXTT6=
EXTT7=
EXTT8=
EXTT9=
EXTT10=
EXTT11=
PLAYORDER=
